<svg version="1" xmlns="http://www.w3.org/2000/svg" width="682.667" height="682.667" viewBox="0 0 512.000000 512.000000"><path d="M246 66.2c-4.7.9-10.5 2-13 2.3-2.5.3-6.1 1-8 1.5-1.9.4-5.3 1.1-7.5 1.4-2.2.3-6.5 1-9.5 1.6-3 .6-6.8 1.3-8.5 1.6-1.6.3-9.3 1.6-17 3-7.7 1.5-15.1 2.8-16.5 3-1.4.3-4.7.9-7.5 1.4-2.7.5-6.3 1.2-8 1.5-1.6.3-7 1.2-12 2.1-4.9.9-9.9 1.8-11 2-1.1.1-2.9.5-4 .7-1.1.3-4 .8-6.5 1.2-2.5.4-5.4.9-6.5 1.1-5.2 1-31.2 5.7-33 5.9-1.1.2-10.9 1.9-21.7 3.9-10.9 2-20 3.6-20.4 3.6-.5 0 0 8.1 1 14 .2 1.4.7 5.2 1 8.5.4 3.3.9 7.6 1.1 9.5.3 1.9.8 5.7 1 8.5.6 5.9 1.2 11.3 2 17.2.6 5.1 1.3 11.1 1.9 17.3 1.2 10.5 1.6 14.7 2.1 17.5.2 1.6.7 6.1 1 10 .3 3.8.8 7.7 1 8.5.2.8.7 4.2 1 7.5.3 3.3.8 7.6 1 9.5.3 1.9.7 5.7 1 8.5.3 2.7 1 8.4 1.5 12.5s1.2 10.4 1.5 14c.3 3.6.8 7.2 1 8 .2.8.6 4.2 1 7.5.3 3.3.7 7.3 1 9 .2 1.6.6 5.7 1 9 .3 3.3.8 7.1 1 8.5.2 1.4.7 5.2 1 8.5.3 3.3.8 7.1 1 8.5.2 1.4.6 5.6 1 9.3.3 3.7.8 7.6 1 8.5.1.9.6 5.1 1 9.2 1 10.1 1.2 11.2 2.7 12.1.7.5 4.5 3.3 8.3 6.3 3.9 3 21.2 16.3 38.5 29.6 17.3 13.2 32.2 24.6 33 25.3.8.7 5.3 4.1 10 7.6 4.7 3.6 9.2 7.1 10 7.8.8.7 4.7 3.7 8.5 6.6 3.9 2.8 7.2 5.4 7.5 5.7.3.3 4.1 3.2 8.5 6.5s8.2 6.2 8.5 6.5c.3.3 3.4 2.8 7 5.5 8.2 6.1 14.3 10.8 15 11.5.3.3 4.2 3.3 8.8 6.8l8.2 6.2 5.3-3.1c2.8-1.7 7.1-4.2 9.4-5.7 2.4-1.5 7.8-4.8 12-7.5 4.3-2.6 12.8-7.8 18.8-11.6 6.1-3.7 17.1-10.5 24.5-15.1 7.4-4.6 18.5-11.4 24.5-15.2 6.1-3.7 11.7-7.1 12.5-7.5.8-.4 3.9-2.3 7-4.3 3-2 7.1-4.5 9-5.6 1.9-1 3.7-2.2 4-2.5.3-.3 3.9-2.6 8-5.1 4.1-2.5 12.5-7.6 18.5-11.3 6.1-3.8 14.7-9.1 19.3-11.9 4.5-2.8 9.5-5.9 11-6.8 1.5-1 3.8-2.4 5.2-3.2 5.5-3.1 12.5-8.2 12.6-9.1.1-.6.5-4.6.9-9s.8-8.2 1-8.5c.1-.3.6-4.6 1-9.5.4-5 .8-9.2 1-9.5.1-.3.6-3.7.9-7.5.4-3.9.9-8.1 1.1-9.5.2-1.4.6-5.6 1-9.3.3-3.7.8-7.7 1-8.8.2-1.1.7-5.1 1-8.9.3-3.8.8-7.7.9-8.7.2-1 .7-5.2 1.1-9.3.4-4.1.8-8.2 1-9 .2-.8.6-4.4.9-8 .4-3.6.9-8.1 1.1-10 .3-1.9.7-5.5.9-8 .3-2.5.8-7.2 1.1-10.5.4-3.3.9-7.6 1.1-9.5.2-1.9.7-6 1-9 .2-3 .7-6.4.8-7.6.2-1.1.7-5.2 1.1-9 .3-3.8.8-8.3 1-10 .3-1.7.7-5.7 1-9 .4-3.2.8-7 1-8.4.2-1.4.7-5.7 1.1-9.5.3-3.9.8-8.1.9-9.5.2-1.4.6-5.2 1-8.5.3-3.3.8-7.4 1-9 .2-1.7.6-5.7 1-9s.8-7 1-8.2c.4-2.3 0-2.6-7-3.9-2.2-.4-4.4-.8-5-1-2.1-.6-7.8-1.8-14-3-2.9-.6-12.9-2.7-29.5-6.4-8-1.7-15.6-3.3-17-3.6-1.4-.2-3.8-.7-5.5-1.1-1.6-.4-3.6-.8-4.4-.9-1.8-.3-10.6-2.3-15.6-3.4-2.2-.5-14.8-3.2-28-6s-25.1-5.4-26.5-5.7c-1.4-.3-2.9-.7-3.5-.7-.5-.1-3.5-.7-6.5-1.4s-6.4-1.4-7.5-1.6c-1.1-.3-8.5-1.9-16.5-3.6-25.6-5.5-23.7-5.3-36-2.8z"/></svg>